<svg width="13" height="13" viewBox="0 0 13 13" fill="none" xmlns="http://www.w3.org/2000/svg">
<path fill-rule="evenodd" clip-rule="evenodd" d="M1.77273 5.90909C2.09908 5.90909 2.36364 6.17365 2.36364 6.5V11.8182H10.6364V6.5C10.6364 6.17365 10.9009 5.90909 11.2273 5.90909C11.5536 5.90909 11.8182 6.17365 11.8182 6.5V12.4091C11.8182 12.7354 11.5536 13 11.2273 13H1.77273C1.44638 13 1.18182 12.7354 1.18182 12.4091V6.5C1.18182 6.17365 1.44638 5.90909 1.77273 5.90909Z" fill="white"/>
<path fill-rule="evenodd" clip-rule="evenodd" d="M0 3.54545C0 3.2191 0.264559 2.95455 0.590909 2.95455H12.4091C12.7354 2.95455 13 3.2191 13 3.54545V6.5C13 6.82635 12.7354 7.09091 12.4091 7.09091H0.590909C0.264559 7.09091 0 6.82635 0 6.5V3.54545ZM1.18182 4.13636V5.90909H11.8182V4.13636H1.18182Z" fill="white"/>
<path fill-rule="evenodd" clip-rule="evenodd" d="M6.5 2.95455C6.82635 2.95455 7.09091 3.2191 7.09091 3.54545V12.4091C7.09091 12.7354 6.82635 13 6.5 13C6.17365 13 5.90909 12.7354 5.90909 12.4091V3.54545C5.90909 3.2191 6.17365 2.95455 6.5 2.95455Z" fill="white"/>
<path fill-rule="evenodd" clip-rule="evenodd" d="M3.84091 1.18182C3.60583 1.18182 3.38038 1.2752 3.21416 1.44143C3.04793 1.60765 2.95455 1.8331 2.95455 2.06818C2.95455 2.30326 3.04793 2.52871 3.21416 2.69494C3.38038 2.86116 3.60583 2.95455 3.84091 2.95455H5.70465C5.63251 2.76582 5.5412 2.55829 5.42826 2.35295C5.0566 1.6772 4.5464 1.18182 3.84091 1.18182ZM6.5 3.54545C7.07943 3.42957 7.07935 3.42915 7.07935 3.42915L7.07902 3.4275L7.07837 3.42434L7.07639 3.41482C7.07475 3.40708 7.07249 3.39657 7.06956 3.38348C7.06371 3.35729 7.05522 3.3207 7.04384 3.27518C7.02111 3.18427 6.9867 3.05703 6.93869 2.90542C6.84335 2.60432 6.69105 2.19661 6.46379 1.78341C6.02295 0.981888 5.2036 0 3.84091 0C3.29239 0 2.76634 0.217897 2.37848 0.605756C1.99062 0.993616 1.77273 1.51967 1.77273 2.06818C1.77273 2.6167 1.99062 3.14275 2.37848 3.53061C2.76634 3.91847 3.29239 4.13636 3.84091 4.13636H6.5C6.67703 4.13636 6.84474 4.05699 6.95697 3.92008C7.06921 3.78318 7.11407 3.60275 7.07935 3.42915L6.5 3.54545Z" fill="white"/>
<path fill-rule="evenodd" clip-rule="evenodd" d="M6.53621 1.78341C6.97705 0.981888 7.7964 0 9.15909 0C9.70761 0 10.2337 0.217897 10.6215 0.605756C11.0094 0.993616 11.2273 1.51967 11.2273 2.06818C11.2273 2.6167 11.0094 3.14275 10.6215 3.53061C10.2337 3.91847 9.70761 4.13636 9.15909 4.13636H6.5C6.32297 4.13636 6.15526 4.05699 6.04303 3.92008C5.93079 3.78318 5.88585 3.60316 5.92057 3.42957L6.5 3.54545C5.92057 3.42957 5.92057 3.42957 5.92057 3.42957L5.92075 3.42867L5.92098 3.4275L5.92163 3.42434L5.92361 3.41482C5.92525 3.40708 5.92751 3.39657 5.93044 3.38348C5.93629 3.35729 5.94478 3.3207 5.95616 3.27518C5.97889 3.18427 6.0133 3.05703 6.06131 2.90542C6.15665 2.60432 6.30895 2.19661 6.53621 1.78341ZM7.29535 2.95455H9.15909C9.39417 2.95455 9.61962 2.86116 9.78584 2.69494C9.95207 2.52871 10.0455 2.30326 10.0455 2.06818C10.0455 1.8331 9.95207 1.60765 9.78584 1.44143C9.61962 1.2752 9.39417 1.18182 9.15909 1.18182C8.4536 1.18182 7.9434 1.6772 7.57174 2.35295C7.4588 2.55829 7.36749 2.76582 7.29535 2.95455Z" fill="white"/>
</svg>
